{"title":"Pompeii (2014) BDRip 720p x264 Dual Audio 5.1Ch [Hindi-Eng] YsB","uid":10416268,"size":988077107,"categoryP":"video","categoryS":"hd___movies","magnet":"?xt=urn:btih:5d4975d04c35894ce54be644836269390cf75b49&amp;dn=Pompeii+%282014%29+BDRip+720p+x264+Dual+Audio+5.1Ch+%5BHindi-Eng%5D+YsB+&amp;tr=udp%3A%2F%2Ftracker.openbittorrent.com%3A80&amp;tr=udp%3A%2F%2Fopen.demonii.com%3A1337&amp;tr=udp%3A%2F%2Ftracker.coppersurfer.tk%3A6969&amp;tr=udp%3A%2F%2Fexodus.desync.com%3A6969","seeders":2,"leechers":0,"uploader":"Dj_YsB","files":8,"time":1403586197,"description":"Pompeii (2014) BDRip 720p x264 Dual Audio 5.1Ch [Hindi-Eng] YsB TeaM SSX\n &lt;a href=&quot;\nhttp://i.imgur.com/pTfAl7F.jpg&quot; rel=&quot;nofollow&quot; target=&quot;_NEW&quot;&gt;\nhttp://i.imgur.com/pTfAl7F.jpg&lt;/a&gt;\n\nInfo:\nGeneral\nComplete name                            : Pompeii (2014) BDRip 720p x264 Dual Audio 5.1Ch [Hindi-Eng] YsB TeaM SSX.mkv\nFormat                                   : Matroska\nFormat version                           : Version 4 / Version 2\nFile size                                : 928 MiB\nDuration                                 : 1h 45mn\nOverall bit rate                         : 1 235 Kbps\nDURATION                                 : 01:45:00.416000000\n\nVideo\nID                                       : 1\nFormat                                   : AVC\nDuration                                 : 1h 45mn\nBit rate                                 : 850 Kbps\nWidth                                    : 1 280 pixels\nHeight                                   : 528 pixels\nFrame rate                               : 23.976 fps\nStream size                              : 621 MiB (67%)\nTitle                                    : YsB TeaM SSX\nAudio #1\nID                                       : 2\nFormat                                   : AC-3\nDuration                                 : 1h 45mn\nBit rate                                 : 192 Kbps\nChannel(s)                               : 6 channels\nChannel positions                        : Front: L C R, Side: L R, LFE\nSampling rate                            : 48.0 KHz\nStream size                              : 144 MiB (16%)\nTitle                                    : YsB TeaM SSX\nLanguage                                 : Hindi\n\nAudio #2\nID                                       : 3\nFormat                                   : AC-3\nDuration                                 : 1h 45mn\nBit rate                                 : 192 Kbps\nChannel(s)                               : 6 channels\nChannel positions                        : Front: L C R, Side: L R, LFE\nSampling rate                            : 48.0 KHz\nStream size                              : 144 MiB (16%)\nTitle                                    : YsB TeaM SSX\nLanguage                                 : English\n\n\nScreenShot: &lt;a href=&quot;\nhttp://i.imgur.com/r78Ve1G.jpg&quot; rel=&quot;nofollow&quot; target=&quot;_NEW&quot;&gt;\nhttp://i.imgur.com/r78Ve1G.jpg&lt;/a&gt; &lt;a href=&quot;\nhttp://i.imgur.com/0cWXVf2.jpg&quot; rel=&quot;nofollow&quot; target=&quot;_NEW&quot;&gt;\nhttp://i.imgur.com/0cWXVf2.jpg&lt;/a&gt; &lt;a href=&quot;\nhttp://i.imgur.com/dRz3Hr9.jpg&quot; rel=&quot;nofollow&quot; target=&quot;_NEW&quot;&gt;\nhttp://i.imgur.com/dRz3Hr9.jpg&lt;/a&gt;\n\nThanks\nGPsoft, HDDR...\nTeaM SSX - Maverick Dude, Hari, Hemkumar, Sajan...","torrent":{"xt":"urn:btih:5d4975d04c35894ce54be644836269390cf75b49","amp;dn":"Pompeii+%282014%29+BDRip+720p+x264+Dual+Audio+5.1Ch+%5BHindi-Eng%5D+YsB+","amp;tr":["udp%3A%2F%2Ftracker.openbittorrent.com%3A80","udp%3A%2F%2Fopen.demonii.com%3A1337","udp%3A%2F%2Ftracker.coppersurfer.tk%3A6969","udp%3A%2F%2Fexodus.desync.com%3A6969"],"infoHash":"5d4975d04c35894ce54be644836269390cf75b49","infoHashBuffer":{"type":"Buffer","data":[93,73,117,208,76,53,137,76,229,75,230,68,131,98,105,57,12,247,91,73]},"announce":[],"urlList":[]}}